Motion_pu05
version=1
nRows=6
nColumns=43
inDegrees=yes
endheader
time	pelvis_tilt	pelvis_list	pelvis_rotation	pelvis_tx	pelvis_ty	pelvis_tz	hip_flexion_r	hip_adduction_r	hip_rotation_r	knee_angle_r	ankle_angle_r	subtalar_angle_r	mtp_angle_r	hip_flexion_l	hip_adduction_l	hip_rotation_l	knee_angle_l	ankle_angle_l	subtalar_angle_l	mtp_angle_l	lumbar_extension	lumbar_bending	lumbar_rotation	neck_flexion	neck_lateral_bending	neck_rotation	arm_flex_r	arm_add_r	arm_rot_r	elbow_flex_r	pro_sup_r	wrist_flex_r	wrist_dev_r	hand_finger_flex_r	arm_flex_l	arm_add_l	arm_rot_l	elbow_flex_l	pro_sup_l	wrist_flex_l	wrist_dev_l	hand_finger_flex_l
      0.00250000	      0.95630361	     13.27633057	    -90.36941019	      0.00131585	      0.92220423	      1.18660084	     13.97464081	     -6.30704734	     -7.65715795	    -13.72320824	     17.25858345	     -2.83258316	     -3.68189656	      8.68589643	      2.03131101	     -9.11904257	     -7.28338446	     20.16100414	     -5.49679105	     -6.33026372	     27.44133365	     -1.41264048	    -14.27424640	      3.00058358	      6.55987342	     20.69084830	   -226.50359577	    -29.62152123	   -332.14220888	     59.40986179	    112.32927030	     24.93457639	      1.85758182	     48.52438515	    183.62909122	    -39.47257385	    101.24204891	     62.44258028	     77.83328250	     30.95362747	     23.36017845	     62.39057218
      0.00500000	      0.91299018	     13.79493824	    -90.10193295	      0.00167235	      0.92149057	      1.18654099	     14.56910721	     -6.31348243	     -7.97886819	    -13.91084748	     17.45795957	     -3.50371019	     -4.54759069	      9.51781860	      1.97667613	     -9.01614496	     -7.80448417	     20.40621096	     -4.84624997	     -7.85441501	     28.13613871	     -1.50719001	    -14.15236258	      2.46961166	      6.37892297	     19.92258100	   -226.21849707	    -29.98493225	   -331.66701977	     59.49860992	    114.25089347	     26.48483315	      0.22566460	     49.01948970	    182.71745126	    -39.49704131	    100.04167199	     62.79580171	     77.47690403	     31.86691447	     27.20578895	     62.13237338
      0.00750000	      0.90874823	     13.70238286	    -90.06869934	      0.00164026	      0.92150243	      1.18698103	     14.49882924	     -6.32303057	     -7.97134940	    -14.07497429	     17.49798165	     -3.50134425	     -4.57607240	      9.51676453	      1.95894891	     -8.98123142	     -8.08709575	     20.37650498	     -4.85047017	     -7.92422952	     28.08682053	     -1.54636860	    -14.14461345	      2.23142534	      6.36498924	     19.87254038	   -226.11053516	    -30.10113260	   -331.38037342	     59.37876147	    114.16320731	     26.70467744	      0.22235740	     49.08793393	    182.85828071	    -39.39511913	    100.47564895	     62.87795407	     77.42270084	     31.99888446	     27.29910660	     62.17130162
      0.01000000	      0.91317173	     13.69156990	    -90.08454740	      0.00152232	      0.92142806	      1.18743309	     14.46932842	     -6.30895712	     -7.97205070	    -14.09639054	     17.50081159	     -3.50130584	     -4.57683662	      9.51231417	      1.96179644	     -8.97878910	     -8.10183964	     20.37914918	     -4.85235227	     -7.92643807	     28.13015435	     -1.55498627	    -14.15136010	      2.22407036	      6.36288157	     19.87059253	   -226.11730451	    -30.11270409	   -331.35162001	     59.37358330	    114.15895396	     26.72044490	      0.22195682	     49.09370785	    182.89007396	    -39.38979433	    100.48707143	     62.88013625	     77.41893114	     32.00673664	     27.30356901	     62.17538852
      0.01250000	      0.82197227	     13.72838291	    -90.00292360	      0.00174758	      0.92142694	      1.18765076	     14.57900427	     -6.27144106	     -8.08912824	    -14.33854421	     17.77413605	     -3.18437315	     -4.99006024	      9.72515401	      1.88078044	     -8.66400555	     -8.51513606	     20.65507666	     -5.18662870	     -8.85887294	     28.10448420	     -1.41652856	    -14.79367923	      2.18761534	      6.18604133	     20.24440902	   -226.05599852	    -29.71517312	   -331.14248981	     59.08516336	    113.10570391	     27.70480714	      0.50862562	     50.12064206	    184.85771103	    -39.24064459	    103.54074674	     63.13925877	     75.07665260	     32.53889456	     27.78285953	     62.82971619
      0.01500000	      0.82775358	     13.71451522	    -90.01924136	      0.00161200	      0.92135328	      1.18812235	     14.55031834	     -6.26496431	     -8.08822317	    -14.36576635	     17.77640545	     -3.18589063	     -4.99071285	      9.70908727	      1.87599001	     -8.66402668	     -8.54048953	     20.65692614	     -5.18902718	     -8.86080166	     28.15326874	     -1.42629813	    -14.80163628	      2.17958871	      6.18276993	     20.24411459	   -226.04618022	    -29.73896929	   -331.12154999	     59.08274935	    113.10374759	     27.71256993	      0.50728202	     50.12487347	    184.87574659	    -39.23495287	    103.55394845	     63.14495334	     75.07830270	     32.54250819	     27.78840474	     62.83118570
